<svg xmlns="http://www.w3.org/2000/svg" xmlns:xlink="http://www.w3.org/1999/xlink" fill="none" version="1.1" width="20" height="20" viewBox="0 0 20 20"><defs><clipPath id="master_svg0_44_00294"><rect x="0" y="0" width="20" height="20" rx="0"/></clipPath></defs><g style="opacity:0.6000000238418579;" clip-path="url(#master_svg0_44_00294)"><g><path d="M17.68263515625,17.97538169708252Q17.59633515625,18.08048169708252,17.46063515625,18.08368169708252L2.53814815625,18.08368169708252Q2.40148115625,18.08268169708252,2.31474305625,17.977081697082518Q2.22800535625,17.87148169708252,2.25459700625,17.73208169708252L3.39814515625,10.97698169708252L2.73227115625,10.97698169708252Q2.44560415625,10.97698169708252,2.44560415625,10.67698169708252L2.44557415625,6.613121697082519Q2.44370215625,6.49179169708252,2.52845215625,6.404931697082519Q2.61320215625,6.318081697082519,2.73227115625,6.31698169708252L8.061435156249999,6.31698169708252L8.06140515625,2.2131246970825194Q8.05953515625,2.0917876970825193,8.14428515625,2.0049322970825196Q8.22903515625,1.9180771070825196,8.34810515625,1.9169816970825195L11.64916515625,1.9169712364825195Q11.77050515625,1.9180771070825196,11.85525515625,2.0049323970825195Q11.94000515625,2.0917876970825193,11.93810515625,2.2169816970825194L11.93810515625,6.31698169708252L17.26453515625,6.316971697082519Q17.38603515625,6.317891697082519,17.47093515625,6.4047816970825195Q17.555835156249998,6.491661697082519,17.55393515625,6.61698169708252L17.55393515625,10.68083169708252Q17.555835156249998,10.80230169708252,17.47093515625,10.88918169708252Q17.38603515625,10.976071697082519,17.266435156249997,10.97698169708252L16.601435156249998,10.97698169708252L17.74543515625,17.73458169708252Q17.76963515625,17.86948169708252,17.68263515625,17.97538169708252ZM3.39143515625,7.296981697082519L3.39143515625,9.99698169708252L16.60813515625,9.99698169708252L16.60813515625,7.296981697082519L10.99310515625,7.296981697082519L10.99310515625,2.8969816970825195L9.00643515625,2.8969816970825195L9.00643515625,7.296981697082519L3.39143515625,7.296981697082519ZM13.05313515625,13.634481697082519L13.05313515625,17.10368169708252L16.677335156250003,17.10368169708252L15.66093515625,11.103651697082519L4.33602515625,11.103651697082519L3.3205751562500003,17.10368169708252L6.94643515625,17.10368169708252L6.94642515625,13.634481697082519L7.76810515625,13.634481697082519L7.76810515625,17.10368169708252L12.23143515625,17.10368169708252L12.23142515625,13.634481697082519L13.05313515625,13.634481697082519Z" fill-rule="evenodd" fill="#FFFFFF" fill-opacity="1" style="mix-blend-mode:passthrough"/></g></g></svg>