<svg xmlns="http://www.w3.org/2000/svg" xmlns:xlink="http://www.w3.org/1999/xlink" fill="none" version="1.1" width="80" height="10" viewBox="0 0 80 10"><defs><clipPath id="master_svg0_62_4198"><rect x="0" y="0" width="80" height="10" rx="0"/></clipPath></defs><g clip-path="url(#master_svg0_62_4198)"><g style="opacity:0.6000000238418579;"><path d="M7,7.9L9.9,5L7,2.1L4.1,5L7,7.9ZM74,2.1L71.1,5L74,7.9L76.9,5L74,2.1ZM9.95589,5.5L11.92647,5.5L11.92647,4.5L9.95589,4.5L9.95589,5.5ZM13.89706,5.5L15.86765,5.5L15.86765,4.5L13.89706,4.5L13.89706,5.5ZM17.8382,5.5L19.808799999999998,5.5L19.808799999999998,4.5L17.8382,4.5L17.8382,5.5ZM21.779400000000003,5.5L23.75,5.5L23.75,4.5L21.779400000000003,4.5L21.779400000000003,5.5ZM25.7206,5.5L27.6912,5.5L27.6912,4.5L25.7206,4.5L25.7206,5.5ZM29.6618,5.5L31.6324,5.5L31.6324,4.5L29.6618,4.5L29.6618,5.5ZM33.602900000000005,5.5L35.573499999999996,5.5L35.573499999999996,4.5L33.602900000000005,4.5L33.602900000000005,5.5ZM37.5441,5.5L39.5147,5.5L39.5147,4.5L37.5441,4.5L37.5441,5.5ZM41.4853,5.5L43.4559,5.5L43.4559,4.5L41.4853,4.5L41.4853,5.5ZM45.4265,5.5L47.3971,5.5L47.3971,4.5L45.4265,4.5L45.4265,5.5ZM49.3676,5.5L51.3382,5.5L51.3382,4.5L49.3676,4.5L49.3676,5.5ZM53.3088,5.5L55.2794,5.5L55.2794,4.5L53.3088,4.5L53.3088,5.5ZM57.25,5.5L59.2206,5.5L59.2206,4.5L57.25,4.5L57.25,5.5ZM61.1912,5.5L63.1618,5.5L63.1618,4.5L61.1912,4.5L61.1912,5.5ZM65.13239999999999,5.5L67.1029,5.5L67.1029,4.5L65.13239999999999,4.5L65.13239999999999,5.5ZM69.0735,5.5L71.0441,5.5L71.0441,4.5L69.0735,4.5L69.0735,5.5Z" fill-rule="evenodd" fill="#D8D8D8" fill-opacity="1"/></g></g></svg>