<svg xmlns="http://www.w3.org/2000/svg" xmlns:xlink="http://www.w3.org/1999/xlink" fill="none" version="1.1" width="20" height="20" viewBox="0 0 20 20"><defs><clipPath id="master_svg0_1_6166"><rect x="0" y="0" width="20" height="20" rx="0"/></clipPath></defs><g clip-path="url(#master_svg0_1_6166)"><g><path d="M7.85029,3L7.34821,3.0594801Q5.09564,3.30183,3.45057,4.60217L3.43129,4.60217L3.41071,4.62115C3.04171,4.9552499999999995,2.8810000000000002,5.36592,2.62707,5.966419999999999C2.32774,6.68889,2.07293,7.42846,1.8639999999999999,8.18111C1.387,9.87883,1,11.93532,1,13.8165L1,13.9747L1.0803571,14.1329C1.675643,15.1612,2.7325,15.8161,3.71221,16.2685C4.69129,16.7209,5.53793,16.9608,6.12293,16.9804L6.50479,17L6.70536,16.664L7.40864,15.4377C8.15436,15.6035,9.01322,15.7148,10,15.7148C10.98679,15.7148,11.8456,15.6035,12.5914,15.4377L13.2946,16.664L13.4959,17L13.8771,16.9804C14.4621,16.9608,15.3087,16.7209,16.2878,16.2685C17.2675,15.8161,18.3244,15.1612,18.9196,14.1329L19,13.9747L19,13.8165C19,11.93532,18.613,9.87883,18.136,8.18111C17.9271,7.42846,17.6723,6.68889,17.3729,5.966419999999999C17.119,5.36529,16.9583,4.9552499999999995,16.5893,4.62179L16.5694,4.60154L16.5488,4.60154Q14.905,3.30183,12.6518,3.0594801L12.1497,3L11.9684,3.45496Q11.7826,3.916881,11.6676,4.44398C11.1149,4.36892,10.55788,4.32918,10,4.32502C9.65607,4.32502,9.06143,4.34716,8.332429999999999,4.44398Q8.216709999999999,3.916881,8.03093,3.45496L7.85029,3ZM6.96636,4.44398C6.994,4.53256,7.02164,4.60913,7.04671,4.68127C6.2155,4.88375,5.329,5.19254,4.51579,5.6892700000000005L5.1985,6.7573799999999995C6.86607,5.73862,9.26136,5.59055,10,5.59055C10.738,5.59055,13.1339,5.73862,14.8015,6.7573799999999995L15.4842,5.6892700000000005C14.671,5.19254,13.7845,4.88375,12.9533,4.68063C12.9784,4.60913,13.006,4.53256,13.0336,4.44334C13.6334,4.56231,14.779,4.8344000000000005,15.7253,5.57094C15.7201,5.57347,15.9664,5.93921,16.1875,6.46061C16.413800000000002,6.997199999999999,16.6645,7.71159,16.8908,8.517109999999999C17.3254,10.061689999999999,17.6667,11.94291,17.6944,13.5989C17.2894,14.207,16.539099999999998,14.7556,15.7452,15.1219C15.2473,15.3535,14.7206,15.5195,14.1786,15.6155L13.8571,15.0821C14.0481,15.0125,14.2364,14.9365,14.3997,14.8644Q15.3891,14.4367,15.9265,13.9747L15.0824,13.0256Q14.7211,13.3521,13.8771,13.7178C13.0343,14.0836,11.7454,14.4493,10,14.4493C8.25464,14.4493,6.96636,14.0836,6.12293,13.7178Q5.27886,13.3521,4.9175699999999996,13.0256L4.0735,13.9747Q4.61093,14.4367,5.60029,14.8644C5.76357,14.9365,5.95193,15.0131,6.14286,15.0821L5.82143,15.6161C5.27916,15.5198,4.752190000000001,15.3534,4.25414,15.1213C3.46086,14.7556,2.71,14.207,2.3062899999999997,13.5989C2.33329,11.94291,2.67464,10.061689999999999,3.10986,8.517109999999999C3.30217,7.81842,3.5368,7.13169,3.8125,6.46061C4.03364,5.93921,4.27986,5.57347,4.27471,5.57094C5.221,4.8344000000000005,6.36657,4.5623000000000005,6.96636,4.44398ZM7.75,8.7544C7.25307,8.7544,6.81336,9.03345,6.54464,9.38716C6.27593,9.74088,6.14286,10.17559,6.14286,10.6527C6.14286,11.12981,6.27593,11.56452,6.54464,11.91824C6.81336,12.27195,7.25307,12.55101,7.75,12.55101C8.246929999999999,12.55101,8.68664,12.27195,8.955359999999999,11.91824C9.22407,11.56452,9.35714,11.12981,9.35714,10.6527C9.35714,10.17559,9.22407,9.74088,8.955359999999999,9.38716C8.68664,9.03345,8.246929999999999,8.7544,7.75,8.7544ZM12.25,8.7544C11.7531,8.7544,11.3134,9.03345,11.0446,9.38716C10.77593,9.74088,10.64286,10.17559,10.64286,10.6527C10.64286,11.12981,10.77593,11.56452,11.0446,11.91824C11.3134,12.27195,11.7531,12.55101,12.25,12.55101C12.7469,12.55101,13.1866,12.27195,13.4554,11.91824C13.7241,11.56452,13.8571,11.12981,13.8571,10.6527C13.8571,10.17559,13.7241,9.74088,13.4554,9.38716C13.1866,9.03345,12.7469,8.7544,12.25,8.7544ZM7.75,10.019929999999999C7.78536,10.019929999999999,7.83036,10.032589999999999,7.91071,10.13889C7.99107,10.24456,8.07143,10.42997,8.07143,10.6527C8.07143,10.87543,7.99107,11.06084,7.91071,11.16714C7.83036,11.27281,7.78536,11.28547,7.75,11.28547C7.71464,11.28547,7.66964,11.27281,7.58929,11.16651C7.48297,11.01574,7.42682,10.836210000000001,7.42857,10.6527C7.42857,10.42997,7.50893,10.24456,7.58929,10.138259999999999C7.66964,10.032589999999999,7.71464,10.019929999999999,7.75,10.019929999999999ZM12.25,10.019929999999999C12.2854,10.019929999999999,12.3304,10.032589999999999,12.4107,10.13889C12.4911,10.24456,12.5714,10.42997,12.5714,10.6527C12.5714,10.87543,12.4911,11.06084,12.4107,11.16714C12.3304,11.27281,12.2854,11.28547,12.25,11.28547C12.2146,11.28547,12.1696,11.27281,12.0893,11.16651C11.983,11.01574,11.9268,10.836210000000001,11.9286,10.6527C11.9286,10.42997,12.0089,10.24456,12.0893,10.138259999999999C12.1696,10.032589999999999,12.2146,10.019929999999999,12.25,10.019929999999999Z" fill="#FFFFFF" fill-opacity="1" style="mix-blend-mode:passthrough"/></g></g></svg>