<svg xmlns="http://www.w3.org/2000/svg" xmlns:xlink="http://www.w3.org/1999/xlink" fill="none" version="1.1" width="20" height="20" viewBox="0 0 20 20"><defs><clipPath id="master_svg0_91_7196"><rect x="0" y="0" width="20" height="20" rx="0"/></clipPath></defs><g style="opacity:0.6000000238418579;" clip-path="url(#master_svg0_91_7196)"><g><path d="M6.537451953125,4.202385375Q6.652301953125,4.1368033749999995,6.746151953125,4.043617375Q6.840011953125,3.950430375,6.906411953125,3.836049375Q6.972821953125,3.721667375,7.007201953125,3.593955375Q7.041581953125,3.466243375,7.041581953125,3.333984375Q7.041581953125,3.235492975,7.022371953125,3.138894375Q7.003151953125,3.042295375,6.965461953125,2.951301375Q6.927771953125,2.860306375,6.873051953125,2.778414375Q6.818331953125,2.696521375,6.748691953125,2.626877375Q6.679041953125,2.557233375,6.597151953125,2.502514375Q6.515261953125,2.4477963750000002,6.424271953125,2.410105375Q6.333271953125,2.372414375,6.236671953125,2.353199375Q6.140071953125,2.333984375,6.041581953125,2.333984375Q5.776191953125,2.333984375,5.545721953125,2.465583375Q5.082571953125,2.730043375,4.6543519531249995,3.047555375Q3.923081953125,3.589714375,3.316971953125,4.267505375Q1.083251953125,6.7655843749999995,1.083251953125,10.102944375Q1.083251953125,13.757784375,3.699501953125,16.340184375Q6.310321953125,18.917284375,9.999921953125,18.917284375Q13.689551953125,18.917284375,16.300351953125002,16.340184375Q18.916551953125,13.757784375,18.916551953125,10.102944375Q18.916551953125,6.765614375,16.682851953125002,4.267477375Q16.076751953124997,3.589708375,15.345551953125,3.047586375Q14.917251953125,2.730038375,14.454151953125,2.465581375Q14.223651953125,2.333984375,13.958251953125,2.333984375Q13.859751953125,2.333984375,13.763151953125,2.353199375Q13.666551953125,2.372414375,13.575551953125,2.410105375Q13.484551953125,2.4477963750000002,13.402651953125,2.502514375Q13.320751953125,2.557233375,13.251151953125,2.626877375Q13.181451953125,2.696521375,13.126751953125,2.778414375Q13.072051953125,2.860306375,13.034351953125,2.951301375Q12.996651953125,3.042295375,12.977451953125,3.138894375Q12.958251953125,3.235492975,12.958251953125,3.333984375Q12.958251953125,3.466244375,12.992651953125,3.593956375Q13.027051953125,3.721668375,13.093451953125,3.836050375Q13.159851953125,3.950432375,13.253651953125,4.043618375Q13.347551953125,4.136804375,13.462351953125,4.202386375Q13.821951953125,4.4076643749999995,14.154351953125,4.654144375Q14.721851953125,5.074884375,15.191951953125,5.6006543749999995Q16.916551953125,7.529374375,16.916551953125,10.102944375Q16.916551953125,12.921734375,14.895351953125,14.916884375Q12.868651953125,16.917284375,9.999921953125,16.917284375Q7.131141953125,16.917284375,5.104481953125,14.916884375Q3.083250953125,12.921734375,3.083250953125,10.102944375Q3.083251953125,7.529354375,4.807871953125,5.600634375Q5.278001953125,5.0748943749999995,5.845481953125001,4.654174375Q6.177931953125,4.407674375,6.537451953125,4.202385375Z" fill-rule="evenodd" fill="#FFFFFF" fill-opacity="1" style="mix-blend-mode:passthrough"/></g><g><path d="M9,1.666015625Q9,1.567524225,9.019214999999999,1.470925625Q9.03843,1.3743266250000001,9.076121,1.283332625Q9.113812,1.192337625,9.16853,1.110445625Q9.223249,1.028552625,9.292893,0.958908625Q9.362537,0.889264625,9.44443,0.834545625Q9.526322,0.779827625,9.617317,0.742136625Q9.708311,0.704445625,9.80491,0.685230625Q9.9015086,0.666015625,10,0.666015625Q10.0984914,0.666015625,10.19509,0.685230625Q10.291689,0.704445625,10.382683,0.742136625Q10.473678,0.779827625,10.55557,0.834545625Q10.637463,0.889264625,10.707107,0.958908625Q10.776751,1.028552625,10.83147,1.110445625Q10.886188,1.192337625,10.923879,1.283332625Q10.96157,1.3743266250000001,10.980785000000001,1.470925625Q11,1.567524225,11,1.666015625L11,9.999345625Q11,10.097835625,10.980785000000001,10.194435625Q10.96157,10.291035625,10.923879,10.382035625Q10.886188,10.473025625,10.83147,10.554915625Q10.776751,10.636815625,10.707107,10.706455625Q10.637463,10.776095625,10.55557,10.830815625Q10.473678,10.885535625,10.382683,10.923225625Q10.291689,10.960915625,10.19509,10.980135625Q10.0984914,10.999345625,10,10.999345625Q9.9015086,10.999345625,9.80491,10.980135625Q9.708311,10.960915625,9.617317,10.923225625Q9.526322,10.885535625,9.44443,10.830815625Q9.362537,10.776095625,9.292893,10.706455625Q9.223249,10.636815625,9.16853,10.554915625Q9.113812,10.473025625,9.076121,10.382035625Q9.03843,10.291035625,9.019214999999999,10.194435625Q9,10.097835625,9,9.999345625L9,1.666015625Z" fill-rule="evenodd" fill="#FFFFFF" fill-opacity="1" style="mix-blend-mode:passthrough"/></g></g></svg>