<svg xmlns="http://www.w3.org/2000/svg" xmlns:xlink="http://www.w3.org/1999/xlink" fill="none" version="1.1" width="20" height="20" viewBox="0 0 20 20"><defs><clipPath id="master_svg0_1_6172"><rect x="0" y="0" width="20" height="20" rx="0"/></clipPath></defs><g clip-path="url(#master_svg0_1_6172)"><g><path d="M4.0798000000000005,7.17643Q1.2500010000000001,8.2376,1.2500010000000001,10Q1.25,11.7624,4.0798000000000005,12.82357Q6.55029,13.75,10,13.75Q13.4497,13.75,15.9202,12.82357Q18.75,11.7624,18.75,10Q18.75,8.2376,15.9202,7.17643Q13.4497,6.25,10,6.25Q6.55029,6.25,4.0798000000000005,7.17643ZM3.12623,10.60655Q2.75,10.27298,2.75,10Q2.750001,9.72703,3.12623,9.393460000000001Q3.62943,8.94732,4.60649,8.58092Q6.82229,7.75,10,7.75Q13.1777,7.75,15.3935,8.58092Q16.3706,8.94732,16.8738,9.393460000000001Q17.25,9.72703,17.25,10Q17.25,10.27298,16.8738,10.60655Q16.3706,11.052679999999999,15.3935,11.419080000000001Q13.1777,12.25,10,12.25Q6.82229,12.25,4.60649,11.419080000000001Q3.62943,11.052679999999999,3.12623,10.60655Z" fill-rule="evenodd" fill="#FFFFFF" fill-opacity="1" style="mix-blend-mode:passthrough"/></g><g><path d="M12.82357,4.0798000000000005Q11.7624,1.25,10,1.25Q8.2376,1.2500010000000001,7.17643,4.0798000000000005Q6.25,6.55029,6.25,10Q6.25,13.4497,7.17643,15.9202Q8.2376,18.75,10,18.75Q11.7624,18.75,12.82357,15.9202Q13.75,13.4497,13.75,10Q13.75,6.55029,12.82357,4.0798000000000005ZM9.393460000000001,3.12623Q9.72703,2.750001,10,2.750001Q10.27298,2.75,10.60655,3.12623Q11.052679999999999,3.62943,11.419080000000001,4.60649Q12.25,6.82229,12.25,10Q12.25,13.1777,11.419080000000001,15.3935Q11.052679999999999,16.3706,10.60655,16.8738Q10.27298,17.25,10,17.25Q9.72703,17.25,9.393460000000001,16.8738Q8.94732,16.3706,8.58092,15.3935Q7.75,13.1777,7.75,10Q7.75,6.82229,8.58092,4.60649Q8.94732,3.62943,9.393460000000001,3.12623Z" fill-rule="evenodd" fill="#FFFFFF" fill-opacity="1" style="mix-blend-mode:passthrough"/></g><g><ellipse cx="10" cy="10" rx="8" ry="8" fill-opacity="0" stroke-opacity="1" stroke="#FFFFFF" fill="none" stroke-width="1.5" stroke-linejoin="round" style="mix-blend-mode:passthrough"/></g></g></svg>