<svg xmlns="http://www.w3.org/2000/svg" xmlns:xlink="http://www.w3.org/1999/xlink" fill="none" version="1.1" width="16" height="16" viewBox="0 0 16 16"><defs><clipPath id="master_svg0_sa34_30837"><rect x="0" y="0" width="16" height="16" rx="0"/></clipPath></defs><g style="opacity:0.6000000238418579;" clip-path="url(#master_svg0_sa34_30837)"><g><path d="M9.44072265625,14.4174328125L1.65947265625,14.4174328125C1.27353565625,14.4174328125,0.95947265625,14.1033328125,0.95947265625,13.7174328125L0.95947265625,3.6486328125C0.95947265625,2.4830078125,1.90791065625,1.5361328125,3.07197265625,1.5361328125L8.02822265625,1.5361328125C9.19385265625,1.5361328125,10.14072265625,2.4845698125,10.14072265625,3.6486328125L10.14072265625,13.7174328125C10.14072265625,14.1033328125,9.82822265625,14.4174328125,9.44072265625,14.4174328125ZM2.35947265625,13.0173328125L8.74072265625,13.0173328125L8.74072265625,3.6486328125C8.74072265625,3.2548828125,8.42041265625,2.9361328125,8.02822265625,2.9361328125L3.07197265625,2.9361328125C2.67822265625,2.9361328125,2.35947265625,3.2564428125,2.35947265625,3.6486328125L2.35947265625,13.0173328125Z" fill="#FFFFFF" fill-opacity="1" style="mix-blend-mode:passthrough"/></g><g><path d="M13.05478265625,14.41725625C12.00478265625,14.41725625,11.15009265625,13.56255625,11.15009265625,12.51255625L11.15009265625,9.170356250000001C11.15009265625,8.89223625,10.92353265625,8.665666250000001,10.64541265625,8.665666250000001L9.44072265625,8.665666250000001C9.05478465625,8.665666250000001,8.74072265625,8.35160625,8.74072265625,7.96566625C8.74072265625,7.57973625,9.05478465625,7.26566625,9.44072265625,7.26566625L10.64541265625,7.26566625C11.69541265625,7.26566625,12.55009265625,8.12035625,12.55009265625,9.170356250000001L12.55009265625,12.51255625C12.55009265625,12.79065625,12.77666265625,13.01725625,13.05478265625,13.01725625C13.33291265625,13.01725625,13.55947265625,12.79065625,13.55947265625,12.51255625L13.55947265625,5.75941625L11.28603265625,2.64847625C11.05791265625,2.33598125,11.12509265625,1.8984812500000001,11.43759265625,1.67035625C11.75009265625,1.44223125,12.18759265625,1.50941875,12.41572265625,1.82191825L14.82509265625,5.1172362499999995C14.91259265625,5.237546249999999,14.95947265625,5.38129625,14.95947265625,5.52973625L14.95947265625,12.51095625C14.96103265625,13.56255625,14.10634265625,14.41725625,13.05478265625,14.41725625Z" fill="#FFFFFF" fill-opacity="1" style="mix-blend-mode:passthrough"/></g><g><path d="M13.31081484375,6.640725156249999C12.92490484375,6.640725156249999,12.61084484375,6.32665515625,12.61084484375,5.94072515625L12.61084484375,4.29228515625C12.61084484375,3.90634815625,12.92490484375,3.59228515625,13.31081484375,3.59228515625C13.69681484375,3.59228515625,14.01081484375,3.90634815625,14.01081484375,4.29228515625L14.01081484375,5.94072515625C14.01081484375,6.32666515625,13.69681484375,6.640725156249999,13.31081484375,6.640725156249999ZM9.44052484375,6.640725156249999L3.79521484375,6.640725156249999C3.40927784375,6.640725156249999,3.09521484375,6.32665515625,3.09521484375,5.94072515625C3.09521484375,5.55478515625,3.40927784375,5.24072515625,3.79521484375,5.24072515625L9.44052484375,5.24072515625C9.82646484375,5.24072515625,10.14052484375,5.55478515625,10.14052484375,5.94072515625C10.14052484375,6.32666515625,9.82802484375,6.640725156249999,9.44052484375,6.640725156249999Z" fill="#FFFFFF" fill-opacity="1" style="mix-blend-mode:passthrough"/></g></g></svg>