<svg xmlns="http://www.w3.org/2000/svg" xmlns:xlink="http://www.w3.org/1999/xlink" fill="none" version="1.1" width="20" height="20" viewBox="0 0 20 20"><defs><clipPath id="master_svg0_sa34_30581"><rect x="0" y="0" width="20" height="20" rx="0"/></clipPath><linearGradient x1="0.7409883737564087" y1="0.2645518183708191" x2="0.2670840352050537" y2="0.7285318941515744" id="master_svg1_14_7723"><stop offset="9.000000357627869%" stop-color="#FF6D41" stop-opacity="1"/><stop offset="50%" stop-color="#FA297F" stop-opacity="1"/><stop offset="100%" stop-color="#FA297F" stop-opacity="1"/></linearGradient><linearGradient x1="1.2248764038085938" y1="0.2751328647136688" x2="0.2928857803344726" y2="1.2071049213409424" id="master_svg2_14_7717"><stop offset="0%" stop-color="#652CB4" stop-opacity="1"/><stop offset="7.000000029802322%" stop-color="#652CB4" stop-opacity="0.8199999928474426"/><stop offset="18.99999976158142%" stop-color="#652CB4" stop-opacity="0.5299999713897705"/><stop offset="30.000001192092896%" stop-color="#652CB4" stop-opacity="0.30000001192092896"/><stop offset="40.00000059604645%" stop-color="#652CB4" stop-opacity="0.14000000059604645"/><stop offset="49.000000953674316%" stop-color="#652CB4" stop-opacity="0.03999999910593033"/><stop offset="55.000001192092896%" stop-color="#652CB4" stop-opacity="0"/></linearGradient></defs><g clip-path="url(#master_svg0_sa34_30581)"><g><path d="M10.00055375,0L2.33984375,7.66071L10.00055375,15.0006L17.66124375,7.66071L10.00055375,0Z" fill="url(#master_svg1_14_7723)" fill-opacity="1" style="mix-blend-mode:passthrough"/></g><g><path d="M6.1443671875,14.17947571875C6.313077187499999,13.95361871875,6.4729371874999995,13.73918971875,6.6643671875,13.53076171875C4.3619371875,14.08561871875,2.7763671875,15.24762171875,2.7763671875,16.59247171875C2.7763671875,16.64262171875,2.7790815075,16.69247171875,2.7833672675,16.74190171875C3.0092241875,16.65619171875,3.2475101875,16.55361171875,3.5006531875,16.42919171875C5.0215071875,15.68205171875,5.6180771875,14.88376171875,6.1443671875,14.17947571875Z" fill="#FFFFFF" fill-opacity="1" style="mix-blend-mode:passthrough"/></g><g><path d="M8.5426246875,16.65178609375C9.0030546875,16.03563609375,9.400624687499999,15.50363609375,10.5244846875,14.95178609375C11.6483346875,14.39992609375,12.3126246875,14.41021609375,13.0816246875,14.42206609375C13.5967546875,14.43020609375,14.1523546875,14.43863609375,14.8300546875,14.29349609375C14.0036546875,13.84949609375,12.9410546875,13.51363909375,11.7400546875,13.33349609375L9.9997646875,15.00035609375L8.7833446875,13.83492509375C7.9164846875,14.418636093749999,7.4723346875,15.01220609375,7.0690546874999995,15.55092609375C6.6086246875,16.16706609375,6.2110546875,16.69921609375,5.0871946875,17.25092609375C4.2989146875,17.63806609375,3.7369116875,17.74849609375,3.2060546875,17.77578609375C3.6247686875,18.33106609375,4.3297646875,18.81863609375,5.2326246874999995,19.19349609375C5.4429146875,19.11192609375,5.6640546875,19.01535609375,5.8976246875000005,18.900636093750002C7.4193446875,18.15435609375,8.0159146875,17.35606609375,8.5426246875,16.65178609375Z" fill="#FFFFFF" fill-opacity="1" style="mix-blend-mode:passthrough"/></g><g><path d="M15.5079375,15.0557216125C14.628797500000001,15.0414359125,13.6325075,15.0261509125,12.1115075,15.7734358125C10.590507500000001,16.5207178125,9.9939375,17.3188678125,9.4676475,18.0232878125C9.007227499999999,18.6392878125,8.6096475,19.1714378125,7.4856515,19.7232878125C7.4347944,19.7482878125,7.3856515,19.7718678125,7.3359375,19.7947178125C8.1201465,19.9330478125,8.9150475,20.0017978125,9.7113675,20.0001478125Q9.974797500000001,20.0001478125,10.2329375,19.9905778125C10.5142175,19.6928678125,10.7329375,19.4008678125,10.940077500000001,19.1235778125C11.4003675,18.5074378125,11.7980775,17.9752978125,12.9219375,17.4235778125C14.045797499999999,16.8718678125,14.710217499999999,16.8821478125,15.4790775,16.8940078125C15.8330775,16.8995778125,16.2062275,16.9052978125,16.6249375,16.8615778125C16.6390475,16.7727978125,16.6461675,16.6830478125,16.6462175,16.5931478125C16.6462175,16.0412928125,16.3789375,15.5202928125,15.9050775,15.0592930425C15.7739375,15.0598650225,15.6427975,15.0572928325,15.5079375,15.0557216125Z" fill="#FFFFFF" fill-opacity="1" style="mix-blend-mode:passthrough"/></g><g><path d="M12.4921875,19.71401203125C14.3088975,19.32287203125,15.7187575,18.56015303125,16.3238975,17.62158203125C15.8043275,17.71643933125,15.2131875,17.89858203125,14.509617500000001,18.24443903125C13.5288975,18.72658203125,12.9331875,19.22929203125,12.4921875,19.71401203125Z" fill="#FFFFFF" fill-opacity="1" style="mix-blend-mode:passthrough"/></g><g style="opacity:0.5;"><path d="M10.00055375,7.66071L2.33984375,7.66071L10.00055375,0L10.00055375,7.66071Z" fill="url(#master_svg2_14_7717)" fill-opacity="1" style="mix-blend-mode:passthrough"/></g></g></svg>