<svg xmlns="http://www.w3.org/2000/svg" xmlns:xlink="http://www.w3.org/1999/xlink" fill="none" version="1.1" width="16" height="16" viewBox="0 0 16 16"><defs><clipPath id="master_svg0_sa34_27084"><rect x="0" y="0" width="16" height="16" rx="0"/></clipPath></defs><g clip-path="url(#master_svg0_sa34_27084)"><g><path d="M0.5830078125,8.00016609375Q0.5830078125,11.07222609375,2.7552978125000003,13.24449609375Q4.9276278125,15.41679609375,7.9996778125,15.41679609375Q11.0717378125,15.41679609375,13.2440078125,13.24449609375Q15.4163078125,11.07222609375,15.4163078125,8.00016609375Q15.4163078125,4.92811609375,13.2440078125,2.7557860937500003Q11.0717378125,0.58349609375,7.9996778125,0.58349609375Q4.9276278125,0.58349609375,2.7552978125000003,2.7557860937500003Q0.5830078125,4.92811609375,0.5830078125,8.00016609375ZM7.9996778125,13.91679609375Q5.5489378125,13.91679609375,3.8159578125,12.18389609375Q2.0830078125,10.45090609375,2.0830078125,8.00016609375Q2.0830078125,5.54942609375,3.8159578125,3.81644609375Q5.5489378125,2.08349609375,7.9996778125,2.08349609375Q10.4504178125,2.08349609375,12.1834078125,3.81644609375Q13.9163078125,5.54942609375,13.9163078125,8.00016609375Q13.9163078125,10.45089609375,12.1834078125,12.18389609375Q10.4504078125,13.91679609375,7.9996778125,13.91679609375Z" fill-rule="evenodd" fill="#AAED4A" fill-opacity="1" style="mix-blend-mode:passthrough"/></g><g><path d="M7.5,11.06066L12.53033,6.03033L11.46967,4.96967L7.5,8.93934L5.53033,6.96967L4.46967,8.03033L7.5,11.06066Z" fill-rule="evenodd" fill="#AAED4A" fill-opacity="1"/></g></g></svg>