<svg xmlns="http://www.w3.org/2000/svg" xmlns:xlink="http://www.w3.org/1999/xlink" fill="none" version="1.1" width="20" height="20" viewBox="0 0 20 20"><defs><clipPath id="master_svg0_1_6160"><rect x="0" y="0" width="20" height="20" rx="0"/></clipPath></defs><g clip-path="url(#master_svg0_1_6160)"><g><path d="M16.5884140625,2.29152183125C17.0068140625,2.12709913125,17.4819140625,2.20774737025,17.8226140625,2.50104353125C18.1633140625,2.79434053125,18.3136140625,3.25210953125,18.2133140625,3.69030953125L17.6436140625,3.56000953125L18.2133140625,3.69030953125L15.3642140625,16.124819531249997C15.1592140625,17.02031953125,14.0713140625,17.37121953125,13.3817140625,16.76421953125L6.6914640625,10.87697953125L2.8120660625,10.101219531249999C2.2844930625,9.996029531249999,1.8893662625,9.555709531249999,1.8417110425,9.01986953125C1.7940557625,8.48402953125,2.1052750625,7.98088953125,2.6060060625,7.78424953125L2.8284300625,8.34788953125L2.6060060625,7.78424953125L16.5884140625,2.29152183125ZM17.0321140625,3.42000953125L3.0502440625,8.912729531250001L7.0890340625,9.72000953125C7.1936040625,9.74086953125,7.2908140625,9.788949531250001,7.3708540625,9.85939953125L14.1824140625,15.85451953125L17.0308140625,3.4206095312500002L17.0321140625,3.42000953125Z" fill="#FFFFFF" fill-opacity="1" style="mix-blend-mode:passthrough"/></g><g><path d="M17.77248125,2.51276746875C17.96848125,2.78406846875,17.90738125,3.16282346875,17.63618125,3.35883046875L7.32463625,10.80610046875C7.05318225,11.00228046875,6.67407725,10.94116046875,6.47803225,10.66960046875C6.28198705,10.39806046875,6.34329345,10.01898046875,6.61493925,9.82307046875L16.926481250000002,2.37579746875C17.197881250000002,2.17999726875,17.57668125,2.24131956875,17.77248125,2.51276746875Z" fill="#FFFFFF" fill-opacity="1" style="mix-blend-mode:passthrough"/></g><g><path d="M6.96934225,9.70849907398C7.30406025,9.70849907398,7.5754012500000005,9.97984109375,7.5754012500000005,10.31456009375L7.5754012500000005,15.247286093749999L8.00389125,15.675776093749999L7.5754012500000005,15.247286093749999L9.94267125,12.880016093750001C10.18048125,12.65035609375,10.55847125,12.65365609375,10.79223125,12.88742609375C11.02600125,13.12118609375,11.02930125,13.49917609375,10.79964125,13.73698609375L8.43237125,16.10425609375L8.02934125,15.70122609375L8.43237125,16.10425609375C8.08571125,16.45081609375,7.56445125,16.55446609375,7.11157825,16.36689609375C6.65860425,16.17917609375,6.36328125,15.73730609375,6.36328125,15.247286093749999L6.36328125,10.31395309375C6.36328125,9.97923509375,6.63462325,9.70789229875,6.96934225,9.70849907398L6.96934225,9.70849907398Z" fill="#FFFFFF" fill-opacity="1" style="mix-blend-mode:passthrough"/></g></g></svg>