<svg xmlns="http://www.w3.org/2000/svg" xmlns:xlink="http://www.w3.org/1999/xlink" fill="none" version="1.1" width="20" height="20" viewBox="0 0 20 20"><defs><clipPath id="master_svg0_sa34_35888"><rect x="0" y="0" width="20" height="20" rx="0"/></clipPath></defs><g style="opacity:0.6000000238418579;" clip-path="url(#master_svg0_sa34_35888)"><g><path d="M7.49186121525,5.7373621875L15.16477578125,5.7457021875Q15.36617578125,5.7459221875,15.54059578125,5.6452221875Q15.66979578125,5.5706321875,15.76060578125,5.4522721875Q15.85142578125,5.3339121875,15.89003578125,5.189812187499999Q15.92864578125,5.0457121874999995,15.90917578125,4.8978021875Q15.88970578125,4.7499021875,15.81511578125,4.6207021875L13.89327578125,1.2919921875Q13.856345781249999,1.2280201875,13.80763578125,1.1724821875Q13.758935781249999,1.1169451875,13.700325781250001,1.0719771875Q13.641725781249999,1.0270091875,13.575475781249999,0.9943381875Q13.509225781249999,0.9616661875,13.43787578125,0.9425481875Q13.366525781250001,0.9234291875,13.292815781249999,0.9185981875Q13.21910578125,0.9137671875,13.14586578125,0.9234081875Q13.07262578125,0.9330501875,13.002685781250001,0.9567941875Q12.932735781249999,0.9805381875,12.86875578125,1.0174721875000001L7.11767678125,4.337852187499999Q7.03225578125,4.3871621874999995,6.96249078125,4.456892187499999Q6.89272478125,4.5266221875,6.84336078125,4.6120121874999995Q6.79399678125,4.6974121874999994,6.76838978125,4.7926621874999995Q6.74278378125,4.8879121875,6.74267578125,4.9865521875Q6.74259578125,5.0604221875,6.75692878125,5.1328821875Q6.77126078125,5.2053521875,6.79945478125,5.2736221875Q6.82764878125,5.341902187500001,6.86862178125,5.4033621875Q6.90959378125,5.4648321875,6.96176978125,5.5171221875Q7.01394578125,5.5694121875,7.07532078125,5.6105121874999995Q7.13669578125,5.6516221875,7.20491078125,5.6799621875Q7.27312578125,5.7083021875,7.34555878125,5.7227921875Q7.41799268125,5.7372821875,7.49186121525,5.7373621875ZM13.865735781249999,4.2442921875L10.28646578125,4.2404021875L12.96923578125,2.6915121875L13.865735781249999,4.2442921875Z" fill-rule="evenodd" fill="#FFFFFF" fill-opacity="1"/></g><g><path d="M0.916748046875,5.833333L0.916748046875,17.5Q0.916748046875,18.1558,1.380498046875,18.6196Q1.8442410468750001,19.0833,2.500081046875,19.0833L17.500048046875,19.0833Q18.155948046875,19.0833,18.619648046875,18.6196Q19.083448046875,18.1558,19.083448046875,17.5L19.083448046875,5.833333Q19.083448046875,5.177485,18.619648046875,4.713742Q18.155948046875,4.25,17.500048046875,4.25L2.500081046875,4.25Q1.844243046875,4.25,1.380498046875,4.71374Q0.916748046875,5.177486,0.916748046875,5.833333ZM2.500081046875,17.5833Q2.416748046875,17.5833,2.416748046875,17.5L2.416748046875,5.833333Q2.416748046875,5.79881,2.441153046875,5.774406Q2.465559046875,5.75,2.500081046875,5.75L17.500048046875,5.75Q17.583448046875,5.75,17.583448046875,5.833333L17.583448046875,17.5Q17.583448046875,17.5833,17.500048046875,17.5833L2.500081046875,17.5833Z" fill-rule="evenodd" fill="#FFFFFF" fill-opacity="1"/></g><g><path d="M12.623461,9.6501031125Q11.75,10.4819738125,11.75,11.6663378125Q11.75,12.8507078125,12.62346,13.6825778125Q13.481407,14.4996778125,14.6875,14.4996778125L18.33333,14.4996778125Q18.4072,14.4996778125,18.47965,14.4852678125Q18.5521,14.4708478125,18.620350000000002,14.442587812500001Q18.688589999999998,14.4143178125,18.75001,14.3732778125Q18.81143,14.3322378125,18.86366,14.2800078125Q18.9159,14.2277678125,18.95694,14.1663478125Q18.99797,14.1049278125,19.02624,14.0366878125Q19.05451,13.9684378125,19.06892,13.8959878125Q19.08333,13.8235478125,19.08333,13.7496778125L19.08333,9.5830078125Q19.08333,9.5091393125,19.06892,9.4366898125Q19.05451,9.3642408125,19.02624,9.2959948125Q18.99797,9.2277498125,18.95694,9.1663298125Q18.9159,9.1049108125,18.86366,9.0526778125Q18.81143,9.0004448125,18.75001,8.9594058125Q18.688589999999998,8.9183668125,18.620350000000002,8.8900978125Q18.5521,8.8618298125,18.47965,8.847418812499999Q18.4072,8.8330078125,18.33333,8.8330078125L14.6875,8.8330078125Q13.481408,8.8330078125,12.623461,9.6501031125ZM13.65795,12.5963778125Q13.25,12.2078578125,13.25,11.6663378125Q13.25,11.1248278125,13.65795,10.7363078125Q14.08141,10.3330078125,14.6875,10.3330078125L17.58333,10.3330078125L17.58333,12.9996778125L14.6875,12.9996778125Q14.08141,12.9996778125,13.65795,12.5963778125Z" fill-rule="evenodd" fill="#FFFFFF" fill-opacity="1"/></g><g><path d="M17.583251953125,6.875Q17.583251953125,6.8011315,17.597662953125,6.728682Q17.612073953125,6.656233,17.640341953125,6.587987Q17.668610953125,6.519742,17.709649953125002,6.458322Q17.750688953125,6.396903,17.802921953125,6.34467Q17.855154953125002,6.292437,17.916573953125,6.251398Q17.977993953125,6.210359,18.046238953125,6.18209Q18.114484953125,6.153822,18.186933953125,6.139411Q18.259383453125,6.125,18.333251953125,6.125Q18.407120453125,6.125,18.479569953125,6.139411Q18.552018953125,6.153822,18.620264953125,6.18209Q18.688509953125,6.210359,18.749929953125,6.251398Q18.811348953124998,6.292437,18.863581953125,6.34467Q18.915814953125,6.396903,18.956853953124998,6.458322Q18.997892953125,6.519742,19.026161953125,6.587987Q19.054429953125,6.656233,19.068840953125,6.728682Q19.083251953125,6.8011315,19.083251953125,6.875L19.083251953125,16.875Q19.083251953125,16.948900000000002,19.068840953125,17.0213Q19.054429953125,17.0938,19.026161953125,17.162Q18.997892953125,17.2303,18.956853953124998,17.2917Q18.915814953125,17.353099999999998,18.863581953125,17.4053Q18.811348953124998,17.4576,18.749929953125,17.4986Q18.688509953125,17.5396,18.620264953125,17.5679Q18.552018953125,17.5962,18.479569953125,17.610599999999998Q18.407120453125,17.625,18.333251953125,17.625Q18.259383453125,17.625,18.186933953125,17.610599999999998Q18.114484953125,17.5962,18.046238953125,17.5679Q17.977993953125,17.5396,17.916573953125,17.4986Q17.855154953125002,17.4576,17.802921953125,17.4053Q17.750688953125,17.353099999999998,17.709649953125002,17.2917Q17.668610953125,17.2303,17.640341953125,17.162Q17.612073953125,17.0938,17.597662953125,17.0213Q17.583251953125,16.948900000000002,17.583251953125,16.875L17.583251953125,6.875Z" fill-rule="evenodd" fill="#FFFFFF" fill-opacity="1"/></g></g></svg>