<svg xmlns="http://www.w3.org/2000/svg" xmlns:xlink="http://www.w3.org/1999/xlink" fill="none" version="1.1" width="32" height="32" viewBox="0 0 32 32"><defs><clipPath id="master_svg0_sa34_34182"><rect x="0" y="0" width="32" height="32" rx="0"/></clipPath></defs><g style="opacity:0.800000011920929;" clip-path="url(#master_svg0_sa34_34182)"><g><path d="M13.3333259765625,9.33333L21.3333259765625,9.33333C25.1045259765625,9.33333,26.9901259765625,9.33333,28.1617259765625,10.504909999999999C29.3333259765625,11.67648,29.3333259765625,13.56213,29.3333259765625,17.3333L29.3333259765625,20C29.3333259765625,23.7712,29.3333259765625,25.6568,28.1617259765625,26.8284C26.9901259765625,28,25.1045259765625,28,21.3333259765625,28L13.3333259765625,28C8.304975976562499,28,5.7908259765625,28,4.2287159765624995,26.4379C2.6666259765625,24.8759,2.6666259765625,22.3616,2.6666259765625,17.3333L2.6666259765625,14.6667C2.6666259765625,9.638349999999999,2.6666259765625,7.1242,4.2287159765624995,5.5620899999999995C5.7908259765625,4,8.304975976562499,4,13.3333259765625,4L18.6666259765625,4C19.9066259765625,4,20.5266259765625,4,21.0353259765625,4.136293C22.4155259765625,4.50616,23.4938259765625,5.58436,23.8637259765625,6.96472C23.9999259765625,7.47339,23.9999259765625,8.09337,23.9999259765625,9.33333" fill="#FFFFFF" fill-opacity="1"/><path d="M24.7443259765625,8.64752Q24.7196259765625,7.2616,24.5881259765625,6.77065Q23.8783259765625,4.12168,21.2294259765625,3.411853Q20.6253259765625,3.25,18.6666259765625,3.25L13.3333259765625,3.25Q8.8833259765625,3.25,7.3812359765625,3.45195Q4.9515559765625,3.778612,3.6983959765625,5.03176Q2.4452379765625,6.28493,2.1185759765625,8.71461Q1.9166259765625,10.2167,1.9166259765625,14.6667L1.9166259765625,17.3333Q1.9166259765625,21.7833,2.1185749765625,23.2854Q2.4452419765625,25.7151,3.6984059765625,26.9682Q4.9515459765625,28.2214,7.3812359765625,28.548Q8.883335976562499,28.75,13.3333259765625,28.75L21.3333259765625,28.75Q24.6833259765625,28.75,25.8223259765625,28.5969Q27.7073259765625,28.3434,28.6920259765625,27.3587Q29.6767259765625,26.3741,29.9301259765625,24.489Q30.0833259765625,23.35,30.0833259765625,20L30.0833259765625,17.3333Q30.0833259765625,13.98334,29.9301259765625,12.84432Q29.6767259765625,10.959240000000001,28.6920259765625,9.97457Q27.7073259765625,8.98991,25.8223259765625,8.73647Q25.4207259765625,8.68248,24.7443259765625,8.64752ZM23.2442259765625,8.59889Q23.2246259765625,7.47767,23.1392259765625,7.15879Q22.6536259765625,5.3464100000000006,20.8411259765625,4.860735Q20.4279259765625,4.75,18.6666259765625,4.75L13.3333259765625,4.75Q8.9837059765625,4.75,7.5811159765625,4.938574Q5.653785976562499,5.1977,4.759045976562501,6.09243Q3.8643259765625,6.987159999999999,3.6051999765625,8.91449Q3.4166259765625,10.31708,3.4166259765625,14.6667L3.4166259765625,17.3333Q3.4166259765625,21.6829,3.6051999765625,23.0855Q3.8643259765625,25.0129,4.7590359765625,25.9075Q5.6537959765625,26.8023,7.5811159765625,27.0614Q8.9837159765625,27.25,13.3333259765625,27.25L21.3333259765625,27.25Q26.6794259765625,27.25,27.6313259765625,26.2981Q28.5833259765625,25.3461,28.5833259765625,20L28.5833259765625,17.3333Q28.5833259765625,11.98714,27.6313259765625,11.03524Q26.6794259765625,10.08333,21.3333259765625,10.08333L13.3333259765625,10.08333Q13.2594259765625,10.08333,13.1869259765625,10.06892Q13.1145259765625,10.05451,13.0463259765625,10.02624Q12.9780259765625,9.997969999999999,12.9166259765625,9.95693Q12.8552259765625,9.9159,12.8029259765625,9.86366Q12.7507259765625,9.81143,12.7097259765625,9.75001Q12.6686259765625,9.68859,12.6403859765625,9.62035Q12.6121159765625,9.5521,12.5977059765625,9.47965Q12.5832959765625,9.4072,12.5832959765625,9.33333Q12.5832959765625,9.25946,12.5977059765625,9.18702Q12.6121159765625,9.11457,12.6403859765625,9.04632Q12.6686259765625,8.97808,12.7097259765625,8.91666Q12.7507259765625,8.85524,12.8029259765625,8.803Q12.8552259765625,8.75077,12.9166259765625,8.70973Q12.9780259765625,8.66869,13.0463259765625,8.640419999999999Q13.1145259765625,8.61215,13.1869259765625,8.59774Q13.2594259765625,8.58333,13.3333259765625,8.58333L21.3333259765625,8.58333Q22.4010259765625,8.58333,23.2442259765625,8.59889Z" fill-rule="evenodd" fill="#382743" fill-opacity="1" style="mix-blend-mode:passthrough"/></g><g><path d="M25.3333740234375,18.66650390625Q25.3333740234375,18.76475390625,25.3237440234375,18.86253390625Q25.3141140234375,18.96031390625,25.294944023437502,19.05668390625Q25.2757740234375,19.15305390625,25.2472540234375,19.24707390625Q25.2187340234375,19.34109390625,25.1811340234375,19.43187390625Q25.1435340234375,19.52264390625,25.097214023437502,19.60929390625Q25.0509040234375,19.69595390625,24.9963140234375,19.77764390625Q24.9417240234375,19.85934390625,24.8793940234375,19.93529390625Q24.8170640234375,20.01124390625,24.7475840234375,20.08071390625Q24.6781140234375,20.15019390625,24.6021640234375,20.21252390625Q24.5262140234375,20.27485390625,24.4445140234375,20.32944390625Q24.3628240234375,20.38403390625,24.2761640234375,20.430343906250002Q24.1895140234375,20.47666390625,24.0987440234375,20.51426390625Q24.0079640234375,20.55186390625,23.9139440234375,20.58038390625Q23.8199240234375,20.60890390625,23.7235540234375,20.628073906250002Q23.6271840234375,20.64724390625,23.5294040234375,20.65687390625Q23.4316240234375,20.66650390625,23.3333740234375,20.66650390625Q23.2351240234375,20.66650390625,23.1373440234375,20.65687390625Q23.0395640234375,20.64724390625,22.9431940234375,20.628073906250002Q22.8468240234375,20.60890390625,22.7528040234375,20.58038390625Q22.6587840234375,20.55186390625,22.5680040234375,20.51426390625Q22.4772340234375,20.47666390625,22.3905840234375,20.430343906250002Q22.3039280234375,20.38403390625,22.2222330234375,20.32944390625Q22.1405380234375,20.27485390625,22.0645870234375,20.21252390625Q21.9886360234375,20.15019390625,21.9191600234375,20.08071390625Q21.8496850234375,20.01124390625,21.7873530234375,19.93529390625Q21.7250220234375,19.85934390625,21.6704350234375,19.77764390625Q21.6158480234375,19.69595390625,21.5695310234375,19.60929390625Q21.5232150234375,19.52264390625,21.4856150234375,19.43187390625Q21.4480150234375,19.34109390625,21.4194933234375,19.24707390625Q21.3909718234375,19.15305390625,21.3718034234375,19.05668390625Q21.3526351234375,18.96031390625,21.3430045734375,18.86253390625Q21.3333740234375,18.76475390625,21.3333740234375,18.66650390625Q21.3333740234375,18.56825390625,21.3430045734375,18.47047390625Q21.3526351234375,18.37269390625,21.3718034234375,18.27632390625Q21.3909718234375,18.17995390625,21.4194933234375,18.08593390625Q21.4480150234375,17.99191390625,21.4856150234375,17.90113390625Q21.5232150234375,17.81036390625,21.5695310234375,17.72371390625Q21.6158480234375,17.63705790625,21.6704350234375,17.55536290625Q21.7250220234375,17.47366790625,21.7873530234375,17.39771690625Q21.8496850234375,17.32176590625,21.9191600234375,17.25228990625Q21.9886360234375,17.18281490625,22.0645870234375,17.12048290625Q22.1405380234375,17.05815190625,22.2222330234375,17.00356490625Q22.3039280234375,16.94897790625,22.3905840234375,16.90266090625Q22.4772340234375,16.85634490625,22.5680040234375,16.81874490625Q22.6587840234375,16.78114490625,22.7528040234375,16.75262320625Q22.8468240234375,16.72410170625,22.9431940234375,16.70493330625Q23.0395640234375,16.68576500625,23.1373440234375,16.67613445625Q23.2351240234375,16.66650390625,23.3333740234375,16.66650390625Q23.4316240234375,16.66650390625,23.5294040234375,16.67613445625Q23.6271840234375,16.68576500625,23.7235540234375,16.70493330625Q23.8199240234375,16.72410170625,23.9139440234375,16.75262320625Q24.0079640234375,16.78114490625,24.0987440234375,16.81874490625Q24.1895140234375,16.85634490625,24.2761640234375,16.90266090625Q24.3628240234375,16.94897790625,24.4445140234375,17.00356490625Q24.5262140234375,17.05815190625,24.6021640234375,17.12048290625Q24.6781140234375,17.18281490625,24.7475840234375,17.25228990625Q24.8170640234375,17.32176590625,24.8793940234375,17.39771690625Q24.9417240234375,17.47366790625,24.9963140234375,17.55536290625Q25.0509040234375,17.63705790625,25.097214023437502,17.72371390625Q25.1435340234375,17.81036390625,25.1811340234375,17.90113390625Q25.2187340234375,17.99191390625,25.2472540234375,18.08593390625Q25.2757740234375,18.17995390625,25.294944023437502,18.27632390625Q25.3141140234375,18.37269390625,25.3237440234375,18.47047390625Q25.3333740234375,18.56825390625,25.3333740234375,18.66650390625Z" fill="#382743" fill-opacity="1"/></g></g></svg>